<?xml version="1.0" encoding="UTF-8"?><svg id="a" xmlns="http://www.w3.org/2000/svg" viewBox="0 0 1265.33 768"><defs><style>.b{isolation:isolate;}</style></defs><g class="b"><path d="M1167.75,432.4l-13.95-5.85c-3.75,9.14-8.55,17.69-14.4,25.65l11.7,8.55c6.68-8.78,12.23-18.23,16.65-28.35ZM1162.36,383.8c0,4.95-.45,9.9-.9,14.4l14.4,2.25c.88-5.51,1.33-11.06,1.35-16.65,0-5.85-.45-11.25-.9-16.65l-14.85,1.8c.45,4.95.9,9.9.9,14.85ZM1167.75,335.21c-4.41-10.26-9.96-19.86-16.65-28.8l-11.7,9c5.94,7.75,10.74,16.14,14.4,25.2l13.95-5.4ZM118.22,383.8c0-4.95.45-9.9.9-14.85l-14.4-1.8c-.76,5.52-1.06,11.07-.9,16.65-.15,5.42.15,10.82.9,16.2l14.4-1.8c-.45-4.5-.9-9.45-.9-14.4ZM113.27,335.21l13.5,5.4c3.82-9.07,8.76-17.47,14.85-25.2l-11.7-9c-6.86,8.84-12.41,18.44-16.65,28.8ZM113.27,432.4c4.24,10.22,9.79,19.66,16.65,28.35l11.7-9c-6.25-7.63-11.2-16.03-14.85-25.2l-13.5,5.85ZM1041.79,271.32v224.52c-1.76-.11-3.52-.26-5.28-.46s-3.51-.43-5.25-.71c-1.74-.28-3.48-.6-5.21-.95-1.73-.36-3.45-.76-5.16-1.2-1.71-.44-3.41-.92-5.1-1.44-1.69-.52-3.36-1.08-5.02-1.68-1.66-.6-3.31-1.24-4.94-1.91-1.63-.68-3.25-1.39-4.84-2.14-1.6-.75-3.18-1.54-4.74-2.37-1.56-.83-3.1-1.69-4.62-2.59-1.52-.9-3.02-1.83-4.49-2.81-1.48-.97-2.93-1.97-4.36-3.01-1.43-1.04-2.83-2.11-4.21-3.22s-2.73-2.24-4.05-3.41c-1.32-1.17-2.62-2.37-3.89-3.6-1.27-1.23-2.51-2.49-3.72-3.78-1.21-1.29-2.39-2.6-3.53-3.95-1.15-1.34-2.26-2.71-3.34-4.11-1.08-1.4-2.13-2.82-3.15-4.26-1.02-1.45-2-2.91-2.94-4.41-.95-1.49-1.86-3.01-2.73-4.54-.88-1.53-1.71-3.09-2.52-4.66-.8-1.57-1.57-3.17-2.29-4.78-.73-1.61-1.42-3.24-2.07-4.88s-1.26-3.3-1.83-4.97-1.1-3.36-1.6-5.05c-.49-1.7-.95-3.4-1.36-5.12-.41-1.72-.78-3.44-1.11-5.18-.33-1.74-.62-3.48-.87-5.23-.25-1.75-.46-3.5-.62-5.26-.17-1.76-.29-3.52-.37-5.29-.08-1.76-.12-3.53-.12-5.3s.04-3.53.12-5.3c.08-1.76.21-3.53.37-5.29.17-1.76.37-3.51.62-5.26s.54-3.49.87-5.23c.33-1.74.7-3.46,1.11-5.18.41-1.72.86-3.43,1.36-5.12.49-1.7,1.03-3.38,1.6-5.05.57-1.67,1.18-3.33,1.83-4.97.65-1.64,1.34-3.27,2.07-4.88.73-1.61,1.49-3.2,2.29-4.78.8-1.57,1.64-3.13,2.52-4.66.87-1.53,1.79-3.05,2.73-4.54.95-1.49,1.93-2.96,2.94-4.41s2.06-2.87,3.15-4.26c1.08-1.4,2.2-2.77,3.34-4.11,1.15-1.34,2.32-2.66,3.53-3.95,1.21-1.29,2.45-2.55,3.72-3.78,1.27-1.23,2.56-2.43,3.89-3.6,1.32-1.17,2.68-2.31,4.05-3.41,1.38-1.11,2.78-2.18,4.21-3.22,1.43-1.04,2.88-2.04,4.36-3.01,1.48-.97,2.97-1.91,4.49-2.81,1.52-.9,3.06-1.76,4.62-2.59,1.56-.83,3.14-1.62,4.74-2.37s3.21-1.47,4.84-2.14c1.63-.68,3.28-1.31,4.94-1.91,1.66-.6,3.34-1.16,5.02-1.68,1.69-.52,3.39-1,5.1-1.44,1.71-.44,3.43-.84,5.16-1.2,1.73-.36,3.47-.68,5.21-.95,1.74-.28,3.49-.51,5.25-.71s3.51-.35,5.28-.46ZM1227.59,256.47h-185.79c-2,.12-4,.29-5.99.5s-3.98.47-5.96.78c-1.98.31-3.95.66-5.92,1.06-1.96.4-3.92.85-5.86,1.34-1.94.49-3.87,1.03-5.79,1.62-1.92.58-3.82,1.21-5.71,1.89-1.89.67-3.76,1.39-5.61,2.15-1.85.76-3.69,1.57-5.51,2.42-1.82.85-3.61,1.74-5.38,2.67-1.77.93-3.52,1.91-5.25,2.93-1.73,1.02-3.43,2.07-5.11,3.17s-3.33,2.23-4.95,3.41c-1.62,1.18-3.22,2.39-4.79,3.64-1.57,1.25-3.1,2.54-4.61,3.86-1.51,1.32-2.98,2.68-4.42,4.07-1.44,1.39-2.85,2.82-4.23,4.28-1.37,1.46-2.71,2.95-4.02,4.47-1.3,1.52-2.57,3.08-3.8,4.66s-2.42,3.19-3.58,4.83c-1.16,1.64-2.27,3.3-3.35,5s-2.11,3.41-3.11,5.15c-1,1.74-1.95,3.5-2.86,5.29-.91,1.79-1.78,3.59-2.61,5.42-.83,1.83-1.61,3.67-2.35,5.54-.74,1.86-1.43,3.74-2.09,5.64s-1.26,3.81-1.82,5.73c-.56,1.93-1.08,3.86-1.54,5.81-.47,1.95-.89,3.91-1.27,5.88-.38,1.97-.71,3.95-.99,5.93-.28,1.98-.52,3.98-.71,5.97-.19,2-.33,4-.43,6s-.14,4.01-.14,6.01c0,2.01.05,4.01.14,6.01.09,2,.24,4,.43,6,.19,2,.43,3.99.71,5.97.28,1.98.61,3.96.99,5.93.38,1.97.8,3.93,1.27,5.88.47,1.95.98,3.89,1.54,5.81.56,1.92,1.17,3.84,1.82,5.73.65,1.9,1.35,3.78,2.09,5.64.74,1.86,1.52,3.71,2.35,5.54.83,1.83,1.7,3.63,2.61,5.42.91,1.79,1.87,3.55,2.86,5.29,1,1.74,2.03,3.46,3.11,5.15,1.08,1.69,2.19,3.36,3.35,5,1.15,1.64,2.35,3.25,3.58,4.83,1.23,1.58,2.5,3.14,3.8,4.66,1.3,1.52,2.64,3.01,4.02,4.47,1.37,1.46,2.78,2.89,4.23,4.28,1.44,1.39,2.92,2.75,4.42,4.07,1.51,1.32,3.04,2.61,4.61,3.86,1.57,1.25,3.16,2.46,4.79,3.64,1.62,1.18,3.28,2.31,4.95,3.41,1.68,1.1,3.38,2.15,5.11,3.17,1.73,1.02,3.48,1.99,5.25,2.93,1.77.93,3.57,1.83,5.38,2.67,1.82.85,3.65,1.65,5.51,2.42,1.85.76,3.73,1.48,5.61,2.15,1.89.67,3.79,1.3,5.71,1.89,1.92.58,3.85,1.12,5.79,1.62,1.94.49,3.9.94,5.86,1.34,1.96.4,3.94.75,5.92,1.06,1.98.31,3.97.57,5.96.78,1.99.21,3.99.38,5.99.5h185.79v235.77c-5.79-.13-11.57-.41-17.34-.81-5.77-.41-11.53-.96-17.28-1.64-5.75-.68-11.47-1.5-17.18-2.46-5.71-.96-11.39-2.05-17.05-3.28-5.66-1.23-11.28-2.59-16.87-4.08-5.59-1.5-11.14-3.12-16.66-4.88-5.51-1.76-10.98-3.65-16.41-5.67-5.42-2.02-10.8-4.17-16.12-6.45-5.32-2.28-10.58-4.68-15.79-7.21-5.21-2.53-10.35-5.18-15.43-7.95-5.08-2.77-10.09-5.66-15.03-8.68-4.94-3.01-9.81-6.14-14.6-9.38s-9.51-6.6-14.14-10.07c-4.63-3.47-9.18-7.04-13.65-10.73-4.46-3.68-8.84-7.47-13.12-11.37-4.28-3.89-8.47-7.89-12.56-11.98-3.1-3.13-6.14-6.31-9.13-9.55-2.98-3.24-5.91-6.53-8.77-9.87-2.86-3.34-5.67-6.74-8.41-10.19-2.74-3.45-5.42-6.94-8.03-10.48-2.61-3.54-5.16-7.13-7.65-10.77-2.48-3.64-4.9-7.32-7.25-11.04-2.35-3.72-4.63-7.49-6.84-11.3-2.21-3.81-4.36-7.65-6.43-11.54-2.07-3.89-4.07-7.81-6-11.77-1.93-3.96-3.79-7.95-5.57-11.98-1.78-4.03-3.5-8.08-5.13-12.17-1.64-4.09-3.2-8.2-4.69-12.35-1.49-4.14-2.9-8.32-4.23-12.51-1.34-4.2-2.59-8.42-3.78-12.66-1.18-4.24-2.29-8.5-3.31-12.79-1.03-4.28-1.98-8.58-2.85-12.9-.87-4.32-1.66-8.65-2.38-12.99-.71-4.35-1.35-8.7-1.9-13.07-.55-4.37-1.03-8.75-1.43-13.13-.4-4.39-.71-8.78-.95-13.18-.24-4.4-.39-8.8-.47-13.2-.08-4.4-.07-8.81.01-13.21.08-4.4.25-8.8.49-13.2.24-4.4.57-8.79.97-13.17.4-4.39.89-8.76,1.45-13.13.56-4.37,1.21-8.72,1.93-13.07.72-4.34,1.52-8.67,2.4-12.99.88-4.32,1.84-8.61,2.87-12.89,1.04-4.28,2.15-8.54,3.34-12.78,1.19-4.24,2.46-8.46,3.8-12.65,1.34-4.19,2.76-8.36,4.26-12.5,1.5-4.14,3.07-8.26,4.71-12.34,1.65-4.08,3.36-8.14,5.16-12.16s3.66-8.01,5.6-11.96c1.94-3.95,3.95-7.87,6.03-11.75,2.08-3.88,4.23-7.72,6.45-11.53,2.22-3.8,4.51-7.56,6.87-11.28,2.36-3.72,4.78-7.4,7.27-11.03s5.05-7.22,7.67-10.75c2.62-3.54,5.31-7.03,8.05-10.47,2.75-3.44,5.56-6.83,8.43-10.17,2.87-3.34,5.8-6.62,8.79-9.86,2.99-3.23,6.04-6.41,9.15-9.53,3.11-3.12,6.27-6.18,9.49-9.19,3.22-3.01,6.49-5.95,9.81-8.84,3.33-2.89,6.7-5.71,10.13-8.48s6.91-5.46,10.43-8.1,7.1-5.21,10.72-7.72c3.62-2.51,7.28-4.95,10.99-7.32,3.71-2.37,7.46-4.68,11.25-6.92,3.79-2.24,7.62-4.4,11.5-6.5,3.87-2.1,7.78-4.12,11.72-6.08,3.95-1.96,7.92-3.84,11.94-5.65,4.01-1.81,8.06-3.55,12.14-5.21,4.08-1.66,8.18-3.25,12.32-4.77,4.13-1.51,8.3-2.95,12.48-4.32,4.19-1.36,8.4-2.65,12.63-3.86,4.23-1.21,8.49-2.34,12.76-3.4,4.27-1.05,8.57-2.03,12.88-2.93,4.31-.9,8.64-1.72,12.98-2.46,4.34-.74,8.69-1.4,13.06-1.99s8.74-1.09,13.12-1.51,8.77-.77,13.17-1.03c4.4-.26,8.79-.45,13.2-.55v235.32ZM1227.59,496.29h-118.31c6.48-3.37,12.63-7.27,18.44-11.7l-9-11.7c-7.74,5.94-16.14,10.74-25.19,14.4l3.6,9h-31.94v-.9h-9v-224.07l9,.9v-.9h31.94l-3.6,8.55c8.97,3.98,17.37,8.93,25.19,14.85l9-11.7c-5.71-4.59-11.86-8.48-18.44-11.7h118.31v224.97ZM648.09,744.68c-3.35-2.91-1.7-8.72-1.71-17.65-.01-21.34-.03-42.67-.04-64.01-.03-42.67-.06-85.35-.08-128.02,66.4-3.49,106.64-32.85,131.4-77.56,24.75-44.72,24.75-102.17,0-146.88s-67.67-76.82-131.4-78.39c.04-70.34.08-140.67.12-211.01,161.4,0,322.79,0,484.19,0-103.92,30.11-193.26,107.16-238.33,205.53-45.06,98.37-45.06,216.34,0,314.71,45.06,98.37,134.4,175.41,238.33,205.53-15.35-4.03-37.35,0-53.31,0-18.51,0-37.02,0-55.53,0-37.02,0-74.04,0-111.06,0-74.04,0-148.08,0-222.12,0-10.36,0-20.73.12-31.1,0-4.87-.06-7.73-.79-9.38-2.23ZM631.51,232.17c-2.39.13-4.78.32-7.16.56-2.38.24-4.76.54-7.13.9-2.37.36-4.73.77-7.08,1.24-2.35.47-4.69.99-7.01,1.57s-4.63,1.21-6.93,1.9c-2.29.69-4.57,1.43-6.83,2.23-2.26.8-4.5,1.65-6.72,2.55-2.22.9-4.41,1.86-6.59,2.86-2.17,1.01-4.32,2.06-6.45,3.17-2.12,1.11-4.22,2.27-6.29,3.47-2.07,1.21-4.11,2.46-6.12,3.77-2.01,1.3-3.99,2.66-5.93,4.05-1.94,1.4-3.86,2.84-5.73,4.33-1.88,1.49-3.72,3.02-5.52,4.6-1.8,1.58-3.57,3.19-5.3,4.85-1.73,1.66-3.41,3.36-5.06,5.1-1.65,1.74-3.25,3.52-4.81,5.33-1.56,1.82-3.08,3.67-4.56,5.55-1.47,1.89-2.9,3.81-4.29,5.76s-2.72,3.94-4.01,5.96c-1.29,2.02-2.53,4.07-3.72,6.14-1.19,2.08-2.34,4.18-3.43,6.31-1.09,2.13-2.13,4.29-3.13,6.47-.99,2.18-1.93,4.38-2.82,6.61-.89,2.23-1.72,4.47-2.5,6.74-.78,2.26-1.51,4.55-2.18,6.85-.67,2.3-1.29,4.61-1.85,6.94-.56,2.33-1.07,4.67-1.52,7.02-.45,2.35-.85,4.71-1.19,7.09-.34,2.37-.62,4.75-.85,7.13-.23,2.38-.4,4.77-.51,7.17-.11,2.39-.17,4.79-.17,7.18s.06,4.79.17,7.18c.11,2.39.28,4.78.51,7.17.23,2.38.51,4.76.85,7.13.34,2.37.73,4.73,1.19,7.09.45,2.35.96,4.69,1.52,7.02.56,2.33,1.18,4.64,1.85,6.94s1.4,4.58,2.18,6.85c.78,2.26,1.61,4.51,2.5,6.74.89,2.23,1.82,4.43,2.82,6.61.99,2.18,2.03,4.34,3.13,6.47,1.09,2.13,2.24,4.24,3.43,6.31,1.19,2.08,2.43,4.13,3.72,6.14,1.29,2.02,2.63,4.01,4.01,5.96,1.38,1.96,2.81,3.88,4.29,5.76,1.47,1.89,2.99,3.74,4.56,5.55,1.56,1.82,3.17,3.59,4.81,5.33,1.65,1.74,3.33,3.44,5.06,5.1,1.73,1.66,3.49,3.28,5.3,4.85,1.8,1.58,3.64,3.11,5.52,4.6,1.88,1.49,3.79,2.93,5.73,4.33,1.94,1.4,3.92,2.75,5.93,4.05,2.01,1.3,4.05,2.56,6.12,3.77s4.16,2.37,6.29,3.47c2.12,1.11,4.27,2.17,6.45,3.17,2.17,1.01,4.37,1.96,6.59,2.86,2.22.9,4.46,1.75,6.72,2.55,2.26.8,4.54,1.54,6.83,2.23,2.29.69,4.6,1.32,6.93,1.9,2.32.58,4.66,1.1,7.01,1.57,2.35.47,4.71.88,7.08,1.24,2.37.36,4.74.66,7.13.9,2.38.24,4.77.43,7.16.56v211.92H149.26c15.29-4.44,30.24-9.83,44.85-16.16,14.61-6.33,28.76-13.56,42.46-21.68,13.7-8.12,26.83-17.07,39.39-26.85,12.57-9.78,24.47-20.31,35.7-31.6,4.37-4.36,8.63-8.83,12.78-13.4,4.15-4.57,8.19-9.24,12.11-14.01,3.92-4.77,7.72-9.63,11.4-14.59,3.68-4.96,7.24-10,10.67-15.14,3.43-5.13,6.73-10.35,9.91-15.65,3.17-5.3,6.21-10.67,9.12-16.12,2.91-5.45,5.68-10.96,8.32-16.55,2.64-5.58,5.13-11.23,7.49-16.94,2.36-5.71,4.57-11.47,6.65-17.28,2.07-5.82,4-11.68,5.79-17.59,1.78-5.91,3.42-11.86,4.91-17.86,1.49-5.99,2.83-12.02,4.02-18.08,1.19-6.06,2.23-12.14,3.13-18.25.89-6.11,1.63-12.24,2.22-18.39.59-6.15,1.03-12.3,1.31-18.47.29-6.17.42-12.34.4-18.51.02-6.17-.11-12.33-.4-18.49-.28-6.16-.72-12.31-1.31-18.45s-1.33-12.26-2.22-18.36c-.89-6.1-1.93-12.18-3.12-18.23-1.19-6.05-2.53-12.07-4.02-18.05-1.49-5.98-3.13-11.93-4.91-17.83-1.78-5.9-3.71-11.76-5.78-17.57s-4.29-11.56-6.65-17.26c-2.36-5.7-4.85-11.33-7.49-16.91-2.64-5.57-5.41-11.08-8.32-16.52-2.91-5.44-5.95-10.8-9.12-16.09-3.17-5.29-6.48-10.49-9.91-15.61-3.43-5.12-6.99-10.16-10.67-15.11-3.68-4.95-7.48-9.8-11.4-14.56-3.92-4.76-7.96-9.42-12.11-13.98-4.15-4.56-8.41-9.01-12.78-13.36-5.6-5.66-11.37-11.13-17.31-16.41-5.95-5.29-12.05-10.38-18.32-15.28-6.27-4.9-12.69-9.59-19.26-14.07-6.57-4.49-13.28-8.76-20.12-12.82-6.84-4.06-13.81-7.89-20.9-11.5-7.09-3.61-14.28-6.99-21.59-10.15-7.3-3.15-14.7-6.07-22.19-8.75s-15.06-5.12-22.71-7.31h482.26v211.02ZM631.51,520.14c-2.15-.12-4.3-.3-6.45-.52-2.14-.23-4.28-.5-6.41-.83s-4.25-.7-6.37-1.13c-2.11-.43-4.22-.9-6.31-1.43-2.09-.53-4.17-1.1-6.23-1.73-2.06-.62-4.11-1.3-6.14-2.02-2.03-.72-4.05-1.49-6.04-2.31-2-.82-3.97-1.68-5.93-2.59-1.95-.91-3.89-1.87-5.8-2.87-1.91-1-3.79-2.05-5.65-3.14-1.86-1.09-3.69-2.23-5.5-3.4-1.81-1.18-3.58-2.4-5.33-3.66-1.75-1.26-3.47-2.56-5.15-3.91-1.69-1.34-3.34-2.73-4.96-4.15-1.62-1.42-3.21-2.88-4.76-4.38s-3.07-3.03-4.55-4.6c-1.48-1.57-2.92-3.17-4.33-4.81-1.4-1.64-2.77-3.31-4.1-5.01-1.33-1.7-2.61-3.43-3.85-5.19s-2.45-3.55-3.6-5.37-2.27-3.66-3.35-5.54c-1.07-1.87-2.1-3.77-3.08-5.69-.98-1.92-1.92-3.86-2.81-5.83-.89-1.96-1.73-3.95-2.53-5.95-.8-2-1.55-4.03-2.25-6.07-.7-2.04-1.35-4.09-1.96-6.17-.6-2.07-1.16-4.15-1.66-6.25-.51-2.1-.96-4.2-1.37-6.32-.41-2.12-.76-4.25-1.07-6.38-.3-2.14-.56-4.28-.76-6.42-.2-2.15-.36-4.3-.46-6.45-.1-2.15-.15-4.31-.15-6.47,0-2.16.05-4.31.15-6.47.1-2.15.25-4.31.46-6.45s.46-4.29.76-6.42c.3-2.14.66-4.26,1.07-6.38.41-2.12.86-4.23,1.37-6.32.51-2.1,1.06-4.18,1.66-6.25.6-2.07,1.26-4.13,1.96-6.17.7-2.04,1.45-4.06,2.25-6.07.8-2,1.64-3.99,2.53-5.95.89-1.96,1.83-3.91,2.81-5.83.98-1.92,2.01-3.82,3.08-5.69,1.07-1.87,2.19-3.72,3.35-5.54,1.16-1.82,2.36-3.61,3.6-5.37s2.53-3.49,3.85-5.19c1.33-1.7,2.69-3.37,4.1-5.01,1.4-1.64,2.85-3.24,4.33-4.81,1.48-1.57,3-3.1,4.55-4.6,1.55-1.5,3.14-2.96,4.76-4.38,1.62-1.42,3.28-2.8,4.96-4.15,1.69-1.34,3.41-2.65,5.15-3.91,1.75-1.26,3.53-2.48,5.33-3.66s3.64-2.31,5.5-3.4c1.86-1.09,3.75-2.14,5.65-3.14,1.91-1,3.84-1.96,5.8-2.87,1.95-.91,3.93-1.77,5.93-2.59,2-.82,4.01-1.59,6.04-2.31,2.03-.72,4.08-1.39,6.14-2.02,2.06-.62,4.14-1.2,6.23-1.73,2.09-.53,4.19-1,6.31-1.43,2.11-.43,4.24-.8,6.37-1.13,2.13-.33,4.27-.6,6.41-.83,2.14-.23,4.29-.4,6.45-.52v273.12ZM239.23,495.84v-224.52c1.76.11,3.52.26,5.28.46s3.51.43,5.25.71c1.74.28,3.48.6,5.21.95,1.73.36,3.45.76,5.16,1.2,1.71.44,3.41.92,5.1,1.44,1.69.52,3.36,1.08,5.02,1.68,1.66.6,3.31,1.24,4.94,1.91,1.63.68,3.25,1.39,4.84,2.14,1.6.75,3.18,1.54,4.74,2.37,1.56.83,3.1,1.69,4.62,2.59,1.52.9,3.02,1.83,4.49,2.81,1.48.97,2.93,1.97,4.36,3.01,1.43,1.04,2.83,2.11,4.21,3.22,1.38,1.11,2.73,2.24,4.05,3.41,1.32,1.17,2.62,2.37,3.89,3.6s2.51,2.49,3.72,3.78c1.21,1.29,2.39,2.6,3.53,3.95,1.15,1.34,2.26,2.71,3.34,4.11,1.08,1.4,2.13,2.82,3.15,4.26,1.02,1.45,2,2.91,2.94,4.41.95,1.49,1.86,3.01,2.73,4.54.87,1.53,1.71,3.09,2.52,4.66.8,1.57,1.57,3.17,2.29,4.78.73,1.61,1.42,3.24,2.07,4.88.65,1.64,1.26,3.3,1.83,4.97.57,1.67,1.1,3.36,1.6,5.05.49,1.7.95,3.4,1.36,5.12.41,1.72.78,3.44,1.11,5.18.33,1.74.62,3.48.87,5.23.25,1.75.46,3.5.62,5.26.17,1.76.29,3.52.37,5.29.08,1.76.12,3.53.12,5.3,0,1.77-.04,3.53-.12,5.3-.08,1.76-.21,3.53-.37,5.29-.17,1.76-.37,3.51-.62,5.26-.25,1.75-.54,3.49-.87,5.23-.33,1.74-.7,3.46-1.11,5.18-.41,1.72-.86,3.43-1.36,5.12-.49,1.7-1.03,3.38-1.6,5.05-.57,1.67-1.18,3.33-1.83,4.97-.65,1.64-1.34,3.27-2.07,4.88-.73,1.61-1.49,3.2-2.29,4.78s-1.64,3.13-2.52,4.66c-.87,1.53-1.79,3.05-2.73,4.54-.95,1.49-1.93,2.96-2.94,4.41-1.02,1.45-2.06,2.87-3.15,4.26-1.08,1.4-2.2,2.77-3.34,4.11-1.15,1.34-2.32,2.66-3.53,3.95-1.21,1.29-2.45,2.55-3.72,3.78-1.27,1.23-2.56,2.43-3.89,3.6-1.32,1.17-2.68,2.31-4.05,3.41-1.38,1.11-2.78,2.18-4.21,3.22-1.43,1.04-2.88,2.04-4.36,3.01-1.48.97-2.97,1.91-4.49,2.81-1.52.9-3.06,1.76-4.62,2.59-1.56.83-3.14,1.62-4.74,2.37-1.6.75-3.21,1.47-4.84,2.14-1.63.68-3.28,1.31-4.94,1.91-1.66.6-3.34,1.16-5.02,1.68-1.69.52-3.39,1-5.1,1.44-1.71.44-3.43.84-5.16,1.2-1.73.36-3.47.68-5.21.95-1.74.28-3.49.51-5.25.71-1.76.19-3.52.35-5.28.46h0ZM53.44,511.14h185.79c2-.12,4-.29,5.99-.5,1.99-.21,3.98-.47,5.96-.78,1.98-.31,3.95-.66,5.92-1.06,1.96-.4,3.92-.85,5.86-1.34,1.94-.49,3.87-1.03,5.79-1.62,1.92-.58,3.82-1.21,5.71-1.89,1.89-.67,3.76-1.39,5.61-2.15,1.85-.76,3.69-1.57,5.51-2.42,1.82-.85,3.61-1.74,5.38-2.67s3.52-1.91,5.25-2.93c1.73-1.02,3.43-2.07,5.11-3.17,1.68-1.1,3.33-2.23,4.95-3.41,1.62-1.18,3.22-2.39,4.79-3.64,1.57-1.25,3.1-2.54,4.61-3.86,1.51-1.32,2.98-2.68,4.42-4.07,1.44-1.39,2.85-2.82,4.23-4.28,1.37-1.46,2.71-2.95,4.02-4.47,1.3-1.52,2.57-3.08,3.8-4.66,1.23-1.58,2.42-3.19,3.58-4.83,1.15-1.64,2.27-3.3,3.35-5,1.08-1.69,2.11-3.41,3.11-5.15,1-1.74,1.95-3.5,2.86-5.29.91-1.79,1.78-3.59,2.61-5.42.83-1.83,1.61-3.67,2.35-5.54.74-1.86,1.43-3.74,2.09-5.64.65-1.9,1.26-3.81,1.82-5.73.56-1.93,1.08-3.86,1.54-5.81.47-1.95.89-3.91,1.27-5.88s.71-3.95.99-5.93c.28-1.98.52-3.98.71-5.97.19-2,.33-4,.43-6,.09-2,.14-4.01.14-6.01s-.05-4.01-.14-6.01c-.09-2-.24-4-.43-6-.19-2-.43-3.99-.71-5.97-.28-1.98-.61-3.96-.99-5.93-.38-1.97-.8-3.93-1.27-5.88-.47-1.95-.98-3.89-1.54-5.81-.56-1.93-1.17-3.84-1.82-5.73-.65-1.9-1.35-3.78-2.09-5.64-.74-1.86-1.52-3.71-2.35-5.54-.83-1.83-1.7-3.63-2.61-5.42-.91-1.79-1.87-3.55-2.86-5.29-1-1.74-2.03-3.46-3.11-5.15s-2.19-3.36-3.35-5c-1.15-1.64-2.35-3.25-3.58-4.83-1.23-1.58-2.5-3.13-3.8-4.66-1.3-1.52-2.64-3.01-4.02-4.47-1.37-1.46-2.78-2.89-4.23-4.28-1.44-1.39-2.92-2.75-4.42-4.07-1.51-1.32-3.04-2.61-4.61-3.86-1.57-1.25-3.16-2.46-4.79-3.64-1.62-1.18-3.28-2.31-4.95-3.41-1.68-1.1-3.38-2.15-5.11-3.17-1.73-1.02-3.48-1.99-5.25-2.93-1.77-.93-3.57-1.83-5.38-2.67-1.82-.85-3.65-1.65-5.51-2.42-1.85-.76-3.73-1.48-5.61-2.15-1.89-.67-3.79-1.3-5.71-1.89-1.92-.58-3.85-1.12-5.79-1.62-1.94-.49-3.9-.94-5.86-1.34-1.96-.4-3.94-.75-5.92-1.06-1.98-.31-3.97-.57-5.96-.78s-3.99-.38-5.99-.5H53.44V21.15c5.76.13,11.52.4,17.26.81,5.75.41,11.48.95,17.21,1.64,5.72.68,11.42,1.5,17.11,2.46,5.68.96,11.34,2.05,16.97,3.28,5.63,1.23,11.23,2.59,16.79,4.08,5.57,1.5,11.09,3.12,16.58,4.88,5.49,1.76,10.93,3.65,16.33,5.67,5.4,2.02,10.74,4.17,16.04,6.45,5.29,2.28,10.53,4.68,15.71,7.21,5.18,2.53,10.29,5.18,15.35,7.95s10.03,5.67,14.95,8.68c4.91,3.01,9.75,6.14,14.51,9.38s9.45,6.6,14.05,10.07c4.6,3.47,9.12,7.05,13.55,10.73,4.43,3.68,8.77,7.47,13.02,11.37,4.25,3.89,8.4,7.89,12.46,11.98,4.2,4.18,8.29,8.47,12.27,12.85,3.98,4.38,7.86,8.87,11.62,13.44,3.76,4.58,7.41,9.24,10.94,14,3.53,4.76,6.95,9.6,10.24,14.52,3.29,4.93,6.46,9.93,9.51,15.01,3.05,5.08,5.96,10.24,8.75,15.46,2.79,5.23,5.45,10.52,7.98,15.88,2.53,5.36,4.92,10.78,7.19,16.25,2.26,5.48,4.39,11.01,6.37,16.59,1.99,5.58,3.84,11.21,5.55,16.88s3.28,11.38,4.71,17.14c1.43,5.75,2.71,11.53,3.85,17.35,1.14,5.81,2.14,11.65,2.99,17.52.85,5.86,1.56,11.74,2.12,17.64.56,5.9.98,11.81,1.25,17.73.27,5.92.39,11.84.37,17.77.02,5.93-.1,11.86-.37,17.79-.27,5.93-.68,11.84-1.25,17.75-.56,5.91-1.27,11.8-2.12,17.67-.85,5.87-1.85,11.72-2.99,17.54-1.14,5.82-2.42,11.61-3.85,17.37-1.43,5.76-3,11.48-4.7,17.16-1.71,5.68-3.56,11.32-5.55,16.91-1.99,5.59-4.11,11.13-6.37,16.61-2.26,5.49-4.66,10.91-7.19,16.28-2.53,5.37-5.19,10.67-7.98,15.91-2.79,5.24-5.71,10.4-8.76,15.49-3.05,5.09-6.22,10.11-9.51,15.04-3.29,4.94-6.71,9.79-10.24,14.55-3.53,4.77-7.18,9.44-10.95,14.03-3.76,4.59-7.64,9.08-11.63,13.47-3.99,4.39-8.08,8.69-12.28,12.88-4.06,4.08-8.22,8.07-12.47,11.95s-8.59,7.67-13.03,11.34c-4.43,3.68-8.95,7.25-13.56,10.7-4.6,3.46-9.29,6.81-14.05,10.04-4.76,3.24-9.6,6.35-14.52,9.36-4.91,3-9.9,5.89-14.95,8.65-5.05,2.76-10.17,5.41-15.35,7.92-5.18,2.52-10.42,4.91-15.71,7.18-5.29,2.27-10.64,4.41-16.04,6.42-5.4,2.01-10.84,3.89-16.32,5.64-5.49,1.75-11.01,3.37-16.58,4.85-5.56,1.49-11.16,2.84-16.79,4.05-5.63,1.22-11.28,2.3-16.96,3.24-5.68.95-11.38,1.76-17.1,2.43-5.72.67-11.45,1.21-17.2,1.61-5.75.4-11.5.66-17.25.78v-235.32ZM53.44,271.32h117.86c-6.44,3.22-12.44,7.12-17.99,11.7l9,11.7c7.63-6.25,16.03-11.2,25.19-14.85l-3.6-8.55h31.49v.9l8.55-.9v224.52h-8.1v.9h-32.39l4.05-9c-9.14-3.75-17.68-8.55-25.64-14.4l-9,11.7,18.44,11.7H53.44v-225.42ZM646.36,246.57c47.72.03,92.05,27.72,115.91,69.04,23.87,41.34,23.88,95.41.03,136.76-13.7,23.75-32.54,42.13-57.17,54.02-12.57,6.07-26.05,10.3-39.86,12.34-3.99.59-15.6,3.5-18.64.48s-.24-23.11-.24-27.77c-.02-73.53-.05-147.07-.07-220.6v-24.27s.03,0,.05,0ZM33.59,6.3v755.46h1208.4V6.3H33.59Z"/></g></svg>