<?xml version="1.0" encoding="UTF-8"?><svg id="a" xmlns="http://www.w3.org/2000/svg" viewBox="0 0 512 512"><defs><style>.b{fill:none;}</style></defs><path class="b" d="M255.83,113.26c-28.59,0-53.08,17.78-63.05,42.86,4.74-1.89,9.64-2.76,9.64-2.76,10.7-1.7,21.09.88,26.98,2.85,18.05-10.89,34.87-12.79,49.65-9.61,7.91,1.71,15.27,4.93,21.94,9.16l14.23,11.38c.12.12.24.24.36.36,1.67-1.94,3.46-3.78,5.33-5.52-8.28-28.12-34.31-48.72-65.08-48.72Z"/><path d="M423.28,276.57c-2.87-1.2-6.15-.82-8.67,1-8.25,5.96-17.67,10.39-27.85,12.87-6.12,1.5-12.52,2.29-19.1,2.29-1.79,0-3.56-.07-5.32-.18-13.78-.9-26.61-5.28-37.63-12.27,1.55-3.66,2.83-7.45,3.81-11.37,11.11,7.71,24.6,12.23,39.14,12.23,2.1,0,4.17-.11,6.22-.29,7.18-.65,14.05-2.38,20.42-5.07,24.74-10.42,42.13-34.9,42.13-63.41,0-14.09-4.25-27.19-11.53-38.1-10.12-15.16-26.1-26.07-44.7-29.5-1.65-3.81-3.4-7.52-5.09-11.19,0,0,0,0,0,0l17.68-29.59c2.08-3.49,1.54-7.94-1.32-10.83l-31.32-30.89c-2.66-2.62-6.72-3.22-10.02-1.47l-31.66,16.75c-7.64-4.01-15.56-6.82-23.22-9.63h0s-7.83-33.93-7.83-33.93c-.75-3.23-3.61-5.53-6.92-5.56l-46.74-.45-.37.03c-7.3.61-9.33,6.64-10,8.61-.06.17-.11.34-.18.51-1.03,2.86-2.23,8.97-4.09,18.69-.73,3.81-1.72,8.98-2.47,12.36-8.32,2.42-16.16,5.58-23.41,9.45l-27.31-17.11c-2.02-1.28-5.35-2.54-9.69-1.35-4.1,1.13-7.91,4.83-20.89,18.94-3,3.26-9.98,10.95-14.41,15.84-2.36,2.6-2.79,6.41-1.09,9.47l16.86,30.32c-1.87,3.3-3.4,6.68-4.77,10.07-17.64,1.41-33.41,9.47-44.79,21.69-11.44,12.28-18.45,28.74-18.45,46.83,0,30.68,20.13,56.68,47.89,65.53,6.59,2.1,13.6,3.24,20.88,3.24.94,0,1.87-.02,2.8-.06,13.47-.54,25.94-4.96,36.34-12.17.98,3.91,2.26,7.71,3.81,11.37-8.96,5.68-19.12,9.63-30,11.39-4.22.68-8.54,1.05-12.95,1.05-2.93,0-5.81-.17-8.66-.48-14.2-1.52-27.29-6.74-38.3-14.69-2.52-1.82-5.8-2.2-8.67-1-40.15,16.78-68.39,56.44-68.39,102.64,0,5.92.46,11.73,1.36,17.4.55,3.49,3.1,6.32,6.51,7.24,14.47,3.88,30.26,7.06,47.06,9.4,1.97.27,3.97-.12,5.68-1.1,1.38,1.35,3.2,2.25,5.22,2.49,10.84,1.25,22.05,2.17,33.56,2.7-1.73,8.36-2.64,17.02-2.64,25.89,0,6.79.53,13.45,1.56,19.95.55,3.49,3.1,6.32,6.51,7.24,16.72,4.48,34.98,8.15,54.39,10.87,2.35.33,4.73-.29,6.63-1.72,1.44,1.81,3.56,3.05,5.98,3.33,21.34,2.46,43.93,3.79,67.31,3.79s45.96-1.33,67.31-3.79c2.42-.28,4.54-1.52,5.98-3.33,1.89,1.43,4.27,2.05,6.62,1.72,19.41-2.71,37.67-6.39,54.39-10.87,3.41-.91,5.96-3.75,6.51-7.24,1.02-6.5,1.56-13.17,1.56-19.95,0-8.87-.91-17.53-2.63-25.89,11.5-.54,22.72-1.45,33.56-2.7,2.02-.23,3.84-1.14,5.22-2.49,1.71.98,3.71,1.37,5.68,1.1,16.8-2.35,32.59-5.53,47.06-9.4,3.41-.91,5.96-3.75,6.51-7.24.89-5.67,1.36-11.48,1.36-17.4,0-46.2-28.24-85.86-68.39-102.64ZM418.55,212.43c-.02,22-14.02,40.74-33.59,47.83-5.27,1.91-10.94,2.96-16.85,3.02-.15,0-.3.01-.46.01-14.46,0-27.52-6.04-36.79-15.74v-17.41c.9-.24,1.81-.48,2.72-.74,3.04-.85,5.41-3.24,6.23-6.28,1.38-5.14.59-13.14-2.56-22.1-1.5-4.28-3.53-8.77-6.13-13.28-1.2-2.08-2.51-4.17-3.93-6.24,3.3-4.31,7.28-8.06,11.76-11.13,8.17-5.6,18.05-8.89,28.69-8.89,16.92,0,31.92,8.28,41.18,21,6.11,8.4,9.73,18.73,9.73,29.9,0,.02,0,.03,0,.05ZM174.25,247.55c-7.72,8.07-18.08,13.6-29.67,15.23-2.33.33-4.7.51-7.11.51-3.84,0-7.58-.44-11.18-1.25-22.72-5.1-39.72-25.4-39.72-49.65,0-2.23.16-4.42.44-6.57,1.58-12.21,7.47-23.07,16.12-30.98,9.06-8.29,21.12-13.35,34.35-13.35s25.66,5.23,34.76,13.75c.31.29.63.58.93.88-.38.78-.74,1.58-1.1,2.41-3.42,7.94-5.79,18.24-6.44,31.59-.18,3.7,1.95,7.13,5.34,8.62,0,0,1.15.55,3.29,1.16v27.66ZM176.02,155.46c-7.95-5.4-17.08-9.16-26.93-10.84,1.07-2.2,2.25-4.3,3.62-6.28l2.99-4.32-20.31-32.67c3-2.89,6.82-7.01,11.74-12.37,3.97-4.31,9.57-10.41,12.75-13.34l33.02,20.68,4.19-2.48c8.34-4.93,17.73-8.74,27.93-11.33l2.11-.54,1.55-1.53c2.39-2.36,2.89-4.62,6.15-21.58.92-4.79,2.23-11.61,3.02-14.83l35.54.35,8.21,35.54,4.01,1.51c1.89.71,3.78,1.4,5.66,2.09,8.28,3.03,16.1,5.89,23.22,10.15l4.11,2.46,28.09-16.82c3.15-1.88,7.17-1.38,9.75,1.23l15.32,15.46c2.63,2.65,3.13,6.75,1.21,9.96l-15.9,26.61,1.73,3.81c.87,1.93,1.76,3.84,2.65,5.76.26.56.52,1.12.77,1.68-9.98.79-19.36,3.71-27.69,8.3-2,1.1-3.93,2.33-5.8,3.62-14.44-25.34-41.69-42.46-72.88-42.46s-60.9,18.71-74.76,45.95c-1.63-1.33-3.31-2.6-5.06-3.78ZM233.15,192.06c-3-3.82-8.5-4.54-12.38-1.63-11.59,8.69-21.62,11.88-29.04,12.8-3.01.37-5.59.38-7.67.22.81-7.18,2.23-12.92,4.13-17.48.81-1.94,1.71-3.67,2.69-5.2.43-.49.8-1.03,1.1-1.59,2.23-2.99,4.8-5.08,7.63-6.46.38-.19.76-.36,1.15-.52.17-.06.34-.13.51-.2,11.9-4.63,25.25,2.18,25.25,2.18,2.86,1.39,6.24,1.16,8.88-.61,14.59-9.78,28.07-12.05,39.9-9.51,8.46,1.82,16.03,5.97,22.51,11.28.41.43.87.81,1.37,1.16,3.61,3.12,6.86,6.6,9.72,10.21.22.32.46.63.72.92,2.28,2.96,4.29,6.01,6.02,9.02,1.52,2.65,2.82,5.26,3.88,7.79,1.29,3.06,2.23,5.99,2.76,8.63.05.25.1.5.14.75-2.77.64-5.48,1.17-8.12,1.61-54.85,9.08-81.15-23.37-81.15-23.37ZM313,233.73v16.08c0,.34,0,.67,0,1.01-.19,11.4-3.53,22.04-9.21,31.07,0,0,0,.01,0,.02-2.77,4.41-6.1,8.43-9.88,11.98-3.89,3.65-8.26,6.79-13.01,9.32-.38.2-.76.41-1.14.6-.1.05-.2.1-.29.15-2.4,1.2-4.9,2.24-7.47,3.11-6.1,2.07-12.63,3.19-19.42,3.19s-13.33-1.12-19.42-3.19c-.34-.11-.67-.24-1.01-.36-2.22-.8-4.38-1.71-6.46-2.75-.1-.05-.19-.1-.29-.15-6.96-3.52-13.14-8.34-18.24-14.14-2.13-2.42-4.07-5.02-5.8-7.76,0,0,0-.01-.01-.02-5.67-9.03-9.02-19.67-9.21-31.07,0-.34,0-.67,0-1.01v-28.48c2.54-.24,5.28-.67,8.19-1.34,7.25-1.68,15.57-4.93,24.66-10.73,10.21,9.46,33.91,26.41,72,25.74,5.09-.09,10.43-.48,16.04-1.26ZM204.29,153.1c12.45-14.56,30.93-23.8,51.54-23.8,26.43,0,49.35,15.2,60.54,37.32-.26.29-.54.58-.8.88-.12-.12-.24-.24-.36-.36l-14.23-11.38c-6.66-4.22-14.02-7.45-21.94-9.16-14.78-3.18-31.61-1.27-49.65,9.61-5.54-1.86-15.07-4.25-25.11-3.11ZM117.84,399.69c-10.1-.39-19.98-1.08-29.57-2.04l-4.54-35.58c-.57-4.46-4.36-7.8-8.86-7.8s-8.29,3.34-8.86,7.8l-4.1,32.15c-10.55-1.71-20.64-3.76-30.18-6.13-.28-2.92-.42-5.88-.42-8.88,0-37.1,21.69-69.16,53.07-84.21,15.31,9.86,33.54,15.59,53.09,15.59,2.88,0,5.73-.14,8.54-.38,15.76-1.36,30.46-6.44,43.22-14.37,1.12,1.53,2.31,3.01,3.53,4.46,5.38,6.36,11.73,11.87,18.85,16.25-1.08,5.31-2.61,11.19-4.82,17.06-3.29-2.46-6.46-4.86-9.5-7.06-2.52-1.82-5.81-2.2-8.67-1-32.75,13.68-58.59,40.65-70.77,74.14ZM243.62,380.47h-1.7c-4.93,0-8.93,4-8.93,8.93s4,8.93,8.93,8.93h1.7v16.11h-1.7c-4.93,0-8.93,4-8.93,8.93s4,8.93,8.93,8.93h1.7v16.11h-1.7c-4.93,0-8.93,4-8.93,8.93s4,8.93,8.93,8.93h1.7v2.5c-17-.25-33.52-1.23-49.38-2.85,0,0-5.41-42.38-5.41-42.38-.57-4.46-4.36-7.8-8.86-7.8s-8.29,3.34-8.86,7.8l-4.94,38.73c-13.16-2.09-25.72-4.64-37.53-7.6-.39-3.76-.59-7.57-.59-11.43,0-43.8,25.74-81.63,62.89-99.19,4.39,3.25,9,6.76,13.8,10.17.33.27.68.52,1.05.74,5.29,3.71,10.8,7.27,16.49,10.22,6.88,3.57,14.02,6.26,21.33,7.51v7.77ZM231.02,349.6c-1.89-.97-3.75-2.02-5.59-3.12-.19-.12-.39-.23-.58-.35-1.03-.63-2.06-1.27-3.08-1.92.68-1.61,1.32-3.22,1.92-4.84,1.9-5.15,3.38-10.29,4.52-15.13,2.87.94,5.81,1.72,8.81,2.32,5.03,1.01,10.22,1.55,15.55,1.55,8.04,0,15.79-1.23,23.09-3.48.42-.13.85-.25,1.27-.39,1.49,6.36,3.57,13.23,6.43,19.97-1.02.65-2.05,1.29-3.08,1.92-2.03,1.23-4.09,2.39-6.18,3.46-6.9,3.54-14.09,6.02-21.54,6.02s-14.64-2.48-21.54-6.02ZM376.47,454.67c-11.81,2.97-24.37,5.52-37.53,7.6l-4.94-38.73c-.57-4.46-4.36-7.8-8.86-7.8s-8.29,3.34-8.86,7.8l-5.41,42.38c-15.86,1.62-32.39,2.6-49.38,2.85v-2.5h2.79c4.93,0,8.93-4,8.93-8.93s-4-8.93-8.93-8.93h-2.79v-16.11h2.79c4.93,0,8.93-4,8.93-8.93s-4-8.93-8.93-8.93h-2.79v-16.11h2.79c4.93,0,8.93-4,8.93-8.93s-4-8.93-8.93-8.93h-2.79v-7.77c7.31-1.25,14.45-3.95,21.33-7.51,5.69-2.95,11.21-6.51,16.49-10.22.37-.22.73-.47,1.05-.74,4.8-3.41,9.41-6.91,13.8-10.17,37.16,17.56,62.89,55.4,62.89,99.19,0,3.86-.2,7.67-.59,11.43ZM473.39,388.09c-9.54,2.36-19.63,4.42-30.18,6.13l-4.1-32.15c-.57-4.46-4.36-7.8-8.86-7.8s-8.29,3.34-8.86,7.8l-4.54,35.58c-9.6.96-19.47,1.65-29.57,2.04-12.19-33.5-38.03-60.46-70.77-74.14-2.87-1.2-6.15-.82-8.67,1-3.04,2.2-6.22,4.6-9.5,7.06-2.03-5.41-3.49-10.81-4.55-15.78-.09-.43-.18-.86-.27-1.28.23-.14.46-.3.69-.45,4.5-2.83,8.68-6.11,12.5-9.77,3.36-3.22,6.45-6.72,9.19-10.49,14.76,9.18,32.12,14.54,50.71,14.73.35,0,.69.02,1.04.02,19.55,0,37.78-5.73,53.09-15.59,31.38,15.05,53.07,47.12,53.07,84.21,0,3-.14,5.96-.42,8.88Z"/></svg>