<?xml version="1.0" encoding="UTF-8"?><svg id="a" xmlns="http://www.w3.org/2000/svg" viewBox="0 0 512 512"><path d="M473.95,75.75c-.58,1.37-1.61,2.03-3.09,2h-20.76c-1.88,0-3.48.66-4.81,1.99-1.33,1.33-1.99,2.93-1.99,4.81v180.07c0,1.99-.38,3.91-1.14,5.75s-1.85,3.46-3.26,4.87c-1.41,1.41-3.03,2.49-4.87,3.26-1.84.76-3.75,1.14-5.75,1.14s-3.91-.38-5.75-1.14c-1.84-.76-3.46-1.85-4.87-3.26s-2.49-3.03-3.26-4.87c-.76-1.84-1.14-3.75-1.14-5.75v-84.97c1.17-.59,2.26-1.29,3.27-2.13,1.01-.83,1.91-1.77,2.7-2.82.79-1.05,1.45-2.17,1.98-3.36.53-1.2.92-2.44,1.16-3.73.24-1.29.34-2.59.28-3.89-.06-1.31-.26-2.59-.61-3.85-.35-1.26-.85-2.46-1.48-3.61-.63-1.15-1.39-2.21-2.26-3.18l-5.04-5.57v-62.95c0-1.88-.66-3.48-1.99-4.81-1.33-1.33-2.93-1.99-4.81-1.99h-20.75c-1.48.03-2.51-.64-3.09-2-.62-1.33-.43-2.53.58-3.6l42.59-47.1c.66-.75,1.49-1.12,2.48-1.12s1.82.38,2.48,1.13l42.59,47.1c1.02,1.07,1.21,2.26.59,3.6h0ZM408.82,165.78c-.57,1.37-1.6,2.03-3.08,2.01h-20.75c-1.88,0-3.48.66-4.81,1.99-1.33,1.33-1.99,2.93-1.99,4.81v90.04c0,1.99-.38,3.91-1.14,5.75-.76,1.84-1.85,3.46-3.26,4.87-1.41,1.41-3.03,2.49-4.87,3.25s-3.75,1.14-5.75,1.14-3.91-.38-5.75-1.14c-1.84-.76-3.46-1.85-4.87-3.25s-2.49-3.03-3.26-4.87c-.76-1.84-1.14-3.76-1.14-5.75v-90.04c0-1.88-.66-3.48-1.99-4.81-1.33-1.33-2.93-1.99-4.81-1.99h-20.75c-1.46.01-2.49-.64-3.08-1.98-.6-1.33-.4-2.54.58-3.62l42.59-47.1c.66-.75,1.49-1.12,2.48-1.12s1.82.37,2.48,1.12l42.59,47.11c1.01,1.06,1.2,2.26.58,3.59ZM440.87,15.95c-1.6-1.78-3.5-3.17-5.69-4.14s-4.49-1.47-6.88-1.47-4.69.49-6.89,1.46c-2.19.98-4.09,2.36-5.69,4.14l-42.57,47.09c-2.25,2.48-3.64,5.38-4.17,8.69-.53,3.31-.12,6.5,1.24,9.56,1.36,3.06,3.45,5.51,6.26,7.33,2.81,1.83,5.89,2.74,9.25,2.74h13.95v41.1l-23.93-26.47c-1.6-1.78-3.5-3.17-5.69-4.14-2.19-.98-4.48-1.47-6.88-1.47-2.4,0-4.69.49-6.88,1.47-2.19.97-4.09,2.35-5.69,4.14l-42.57,47.09c-2.25,2.48-3.65,5.38-4.18,8.69-.53,3.31-.12,6.5,1.24,9.56,1.36,3.07,3.45,5.51,6.26,7.34,2.81,1.83,5.9,2.74,9.25,2.73h13.95v83.24c0,3.79.73,7.45,2.18,10.95,1.45,3.51,3.52,6.6,6.2,9.28,2.68,2.68,5.78,4.75,9.28,6.2,3.51,1.45,7.16,2.18,10.95,2.18s7.44-.73,10.95-2.18c3.51-1.45,6.6-3.52,9.28-6.2,2.68-2.68,4.75-5.78,6.2-9.28s2.18-7.16,2.18-10.95v-83.24h7.9v83.24c0,3.79.73,7.45,2.18,10.95s3.52,6.6,6.2,9.28c2.68,2.68,5.78,4.75,9.28,6.2,3.51,1.45,7.16,2.18,10.95,2.18s7.44-.73,10.95-2.18c3.51-1.45,6.6-3.52,9.28-6.2,2.68-2.68,4.75-5.78,6.2-9.28,1.45-3.51,2.18-7.16,2.18-10.95V91.35h13.95c3.35,0,6.43-.9,9.25-2.73,2.81-1.82,4.9-4.27,6.26-7.33,1.36-3.06,1.78-6.25,1.24-9.56-.53-3.31-1.92-6.21-4.17-8.69l-42.58-47.09ZM461.36,399.67l-58.22,10.74v-5.9c0-1.13-.22-2.22-.65-3.26-.43-1.04-1.05-1.97-1.85-2.77s-1.72-1.42-2.77-1.85c-1.04-.43-2.13-.65-3.26-.65h-38.53c-1.13,0-2.22.22-3.26.65-1.04.43-1.97,1.05-2.77,1.85s-1.42,1.72-1.85,2.77c-.43,1.05-.65,2.13-.65,3.26v5.9l-58.22-10.74v-48.78h172.04v48.78ZM361.14,427.88v-18.3h28.41v18.3h-28.41ZM453.74,475.97c-.02.49-.27.75-.77.77h-155.25c-.51,0-.78-.26-.8-.77v-61.07l50.62,9.33v8.71c0,1.13.22,2.22.65,3.26.43,1.04,1.05,1.97,1.85,2.77.8.8,1.72,1.42,2.77,1.85,1.05.44,2.13.65,3.26.65h38.53c1.13,0,2.22-.22,3.26-.65,1.04-.43,1.97-1.05,2.77-1.85s1.42-1.72,1.85-2.77c.43-1.05.65-2.14.65-3.26v-8.71l50.59-9.33v61.06ZM173.56,461.6v-13.53l51.82-72.24c.57-.8.96-1.68,1.15-2.65.19-.97.17-1.93-.06-2.89-.23-.96-.65-1.83-1.25-2.6-.61-.78-1.34-1.4-2.22-1.85l-9.23-4.82,18.48-17.34c.75-.7,1.31-1.53,1.68-2.48.37-.96.52-1.94.45-2.97-.07-1.02-.37-1.98-.87-2.87-.51-.89-1.18-1.63-2.02-2.22l-20.63-14.34c6.49.05,12.87.9,19.14,2.55,6.27,1.65,12.24,4.06,17.91,7.21,5.67,3.15,10.86,6.96,15.57,11.41,4.71,4.46,8.8,9.43,12.26,14.91v47.78c0,4.48,3.01,8.17,7.6,9.61v49.32h-109.77ZM123.73,374.27l10.78-5.62c.98-.51,1.78-1.22,2.41-2.11.63-.9,1.02-1.9,1.17-2.99.15-1.09.04-2.16-.32-3.19-.37-1.04-.95-1.93-1.75-2.69l-19.32-18.15,24.18-16.82,19.4,55.75c.47,1.34,1.27,2.43,2.42,3.26,1.15.83,2.43,1.27,3.85,1.3h.42c1.42-.03,2.7-.47,3.85-1.3,1.15-.84,1.95-1.93,2.42-3.26l19.4-55.75,24.18,16.81-19.34,18.15c-.8.76-1.39,1.65-1.75,2.69-.37,1.03-.48,2.1-.33,3.19.15,1.09.54,2.09,1.17,2.99.63.9,1.44,1.61,2.41,2.11l10.78,5.62-43.01,59.95-43.03-59.95ZM159.96,461.6H45.95v-65.9c0-5.04.5-10.03,1.49-14.98.99-4.94,2.44-9.74,4.37-14.4,1.93-4.66,4.29-9.08,7.09-13.27,2.8-4.19,5.98-8.07,9.54-11.64,3.56-3.57,7.43-6.76,11.62-9.56,4.19-2.81,8.6-5.18,13.26-7.12,4.65-1.94,9.45-3.41,14.39-4.41,4.94-1,9.93-1.51,14.97-1.52l-20.62,14.34c-.84.59-1.52,1.32-2.02,2.21s-.8,1.85-.87,2.87.07,2.01.44,2.97c.37.96.93,1.78,1.68,2.49l18.46,17.34-9.24,4.82c-.87.45-1.61,1.07-2.22,1.85-.61.78-1.02,1.64-1.25,2.6-.23.96-.25,1.92-.06,2.89.19.97.57,1.85,1.15,2.65l51.85,72.24v13.53ZM179.59,318.8l-12.84,36.89-12.84-36.89h10.9c.65.01,1.29.03,1.94.03s1.29-.02,1.94-.03h10.9ZM106.7,275.68c-7.19-9.24-11.96-19.6-14.3-31.08-2.34-11.48-2-22.88,1-34.2.02-.09.04-.17.05-.26.02-.08.05-.19.07-.29.57-3.22,6.26-8.62,20.4-13.27,14.25-4.69,33.01-7.26,52.83-7.26s38.58,2.58,52.83,7.26c14.14,4.65,19.82,10.05,20.38,13.26,0,.03.02.06.02.08.03.16.06.32.1.48.72,2.75,1.28,5.54,1.68,8.35.4,2.81.65,5.64.73,8.48.08,2.84,0,5.68-.23,8.52-.24,2.83-.63,5.64-1.18,8.43-.55,2.79-1.26,5.54-2.12,8.25-.86,2.71-1.87,5.36-3.03,7.96-1.16,2.6-2.46,5.12-3.91,7.57-1.45,2.45-3.02,4.81-4.73,7.08-1.71,2.27-3.54,4.44-5.5,6.51-1.96,2.06-4.02,4.01-6.19,5.85-2.17,1.83-4.45,3.54-6.81,5.11-2.37,1.57-4.81,3.01-7.34,4.32s-5.12,2.46-7.78,3.46c-2.66,1.01-5.37,1.87-8.12,2.57-2.76.71-5.54,1.25-8.36,1.64s-5.65.62-8.49.69h-3.87c-11.42-.25-22.23-2.97-32.42-8.15-10.19-5.17-18.75-12.3-25.7-21.38h0ZM239.86,142.66v48.05c-16.72-10.21-46.05-14.99-73.11-14.99s-56.41,4.78-73.13,15v-48.05c.06-.19.13-.37.21-.55.14-.24.27-.48.38-.74,1.94-3.22,7.85-7.65,19.72-11.54,14.25-4.68,33.01-7.25,52.83-7.25s38.59,2.57,52.83,7.25c12.34,4.05,18.22,8.67,19.89,11.92.01.02.02.05.03.07.14.27.26.55.35.84h0ZM85.31,130.66l-48.24-15.58,129.68-41.88,129.68,41.88-48.25,15.59c-13.35-14.82-49.02-21.67-81.43-21.67s-68.07,6.85-81.44,21.66h0ZM47.07,181.16v19.87h-15.41v-19.87c.02-2.57.72-4.94,2.11-7.1,1.39-2.16,3.26-3.78,5.6-4.85,2.34,1.07,4.2,2.69,5.59,4.85,1.39,2.16,2.1,4.53,2.11,7.1ZM346.36,321.68c.03-1.37.72-2.05,2.09-2.06h53.79c1.36.02,2.05.71,2.06,2.06v15.61h-57.94v-15.61ZM464.39,337.29h-46.49v-15.61c0-2.07-.4-4.07-1.2-5.99s-1.93-3.61-3.4-5.08c-1.47-1.47-3.16-2.6-5.08-3.4-1.92-.8-3.91-1.2-5.99-1.2h-53.79c-2.08,0-4.08.4-6,1.19-1.92.79-3.62,1.93-5.09,3.39s-2.61,3.16-3.4,5.08c-.8,1.92-1.2,3.92-1.2,5.99v15.61h-46.46c-1.95,0-3.77.49-5.45,1.47-8.21-10.08-18.13-18.04-29.76-23.88-11.62-5.84-23.93-9.04-36.93-9.61,9.08-5.7,16.88-12.8,23.42-21.3,4.14-5.32,7.62-11.04,10.45-17.16,2.83-6.11,4.93-12.47,6.31-19.07,1.38-6.6,1.99-13.26,1.84-20s-1.06-13.37-2.72-19.9v-64.58l67.19-21.7c1.4-.46,2.54-1.28,3.4-2.47.87-1.19,1.3-2.53,1.3-4s-.43-2.8-1.3-4c-.87-1.19-2-2.02-3.4-2.47l-151.81-49.02c-1.39-.45-2.78-.45-4.18,0L12.86,108.61c-1.4.45-2.54,1.28-3.4,2.47-.87,1.19-1.3,2.53-1.3,4s.43,2.81,1.3,4c.87,1.19,2,2.02,3.4,2.47l19.71,6.36v29.52c-4.43,2.3-7.95,5.58-10.56,9.84-2.61,4.26-3.92,8.89-3.95,13.89v26.67c0,1.88.66,3.48,1.99,4.81s2.93,1.99,4.81,1.99h29.01c1.88,0,3.48-.66,4.81-1.99s1.99-2.93,1.99-4.81v-26.67c-.02-5-1.34-9.63-3.94-13.89-2.61-4.26-6.13-7.55-10.56-9.85v-25.13l33.86,10.94v64.6c-1.66,6.53-2.57,13.17-2.71,19.91-.15,6.74.47,13.41,1.85,20.01s3.48,12.95,6.32,19.07c2.83,6.12,6.32,11.84,10.46,17.15,6.53,8.49,14.33,15.59,23.41,21.29-5.79.23-11.5,1.01-17.14,2.34-5.64,1.33-11.1,3.18-16.38,5.55-5.28,2.38-10.29,5.23-15.03,8.57-4.74,3.33-9.11,7.09-13.13,11.26-4.02,4.17-7.6,8.69-10.75,13.55-3.15,4.86-5.81,9.98-7.98,15.35-2.17,5.37-3.81,10.9-4.92,16.58-1.11,5.69-1.67,11.43-1.67,17.22v72.69c0,1.88.66,3.48,1.99,4.81,1.33,1.33,2.93,1.99,4.81,1.99h244.18v.77c0,1.91.37,3.74,1.1,5.5.73,1.76,1.77,3.31,3.12,4.66,1.35,1.35,2.9,2.38,4.67,3.11,1.76.73,3.59,1.09,5.5,1.09h155.25c1.9,0,3.74-.37,5.5-1.1,1.76-.73,3.31-1.77,4.66-3.11,1.35-1.35,2.39-2.9,3.11-4.66.73-1.76,1.09-3.59,1.1-5.49v-63.69c4.62-1.46,7.62-5.15,7.62-9.61v-55.19c-.03-1.37-.32-2.69-.87-3.95-.55-1.26-1.32-2.37-2.31-3.32-.99-.96-2.13-1.69-3.41-2.19-1.28-.51-2.61-.74-3.98-.72Z"/></svg>