<?xml version="1.0" encoding="UTF-8"?><svg id="a" xmlns="http://www.w3.org/2000/svg" viewBox="0 0 512 512"><path d="M264.83,245.81c.46,0,.91-.04,1.35-.13l60.11-11.38c.94-.18,1.82-.53,2.62-1.06s1.48-1.19,2.02-1.98c.54-.79.91-1.66,1.11-2.6.2-.94.21-1.88.03-2.83s-.53-1.82-1.06-2.62c-.53-.8-1.19-1.48-1.98-2.02-.79-.54-1.66-.91-2.6-1.11-.94-.19-1.88-.21-2.83-.03l-60.11,11.38c-1.84.35-3.31,1.27-4.44,2.77-1.12,1.49-1.6,3.17-1.42,5.03.17,1.86.95,3.42,2.33,4.68,1.38,1.26,3,1.89,4.87,1.9h0ZM498.26,292.83h-26.13c-1.99.02-3.68.74-5.07,2.15-1.4,1.41-2.09,3.11-2.09,5.1s.7,3.68,2.09,5.1c1.4,1.41,3.09,2.13,5.07,2.15h26.13c1.99-.02,3.68-.74,5.07-2.15,1.4-1.41,2.09-3.11,2.09-5.1s-.7-3.68-2.09-5.1c-1.4-1.41-3.09-2.13-5.07-2.15h0ZM457.27,198.36c-.77-.57-1.63-.97-2.56-1.2s-1.87-.27-2.82-.12c-.95.15-1.83.47-2.66.97-.82.5-1.52,1.14-2.08,1.91l-16.44,22.43c-.57.78-.97,1.63-1.2,2.56s-.27,1.87-.12,2.82c.15.95.47,1.84.97,2.66s1.13,1.52,1.91,2.08c.77.57,1.63.97,2.56,1.2s1.88.27,2.83.13c.95-.15,1.84-.47,2.66-.97s1.52-1.13,2.09-1.91l16.44-22.43c.57-.78.97-1.63,1.2-2.56s.27-1.88.12-2.83-.47-1.84-.97-2.66-1.14-1.52-1.91-2.08h-.02ZM442.54,306.61c0-38.69-29.73-70.17-66.27-70.17-5.62,0-11.14.73-16.56,2.22-1.34,1.13-2.89,1.7-4.65,1.69-.17,0-.33,0-.5-.02-25.9,9.54-44.54,35.64-44.54,66.28-.07,9.47,1.66,18.6,5.21,27.38s8.63,16.56,15.26,23.32c6.92,7.02,12.25,13.17,15.87,19.85,2.53-.86,5.12-1.29,7.79-1.29h14.88v-48.15l-20.25-18.75c-1.45-1.36-2.2-3.04-2.27-5.02-.07-1.99.57-3.71,1.92-5.17,1.35-1.46,3.02-2.23,5-2.32,1.99-.09,3.71.53,5.19,1.87l17.67,16.35,17.69-16.35c.71-.65,1.51-1.14,2.41-1.48.9-.33,1.83-.48,2.79-.44.96.04,1.88.26,2.75.66s1.63.96,2.29,1.67c.65.71,1.14,1.51,1.48,2.41s.48,1.83.44,2.79c-.04.96-.26,1.88-.66,2.75s-.96,1.64-1.66,2.29l-20.28,18.74v48.14h14.91c2.67,0,5.27.43,7.79,1.29,3.61-6.68,8.95-12.83,15.87-19.84,6.63-6.77,11.71-14.54,15.26-23.33s5.28-17.91,5.2-27.38h-.03ZM397.88,428.23h-43.24c.64,9.06,7.69,16.22,16.28,16.22h10.72c8.57,0,15.6-7.16,16.25-16.22h-.01ZM347.29,393.1c-2.61,2.43-3.89,5.42-3.86,8.98,0,6.43,4.8,11.66,10.71,11.66h44.28c5.9,0,10.71-5.23,10.71-11.66.03-3.56-1.25-6.56-3.86-8.98-.13-.11-.27-.21-.39-.33-1.86-1.58-4.02-2.37-6.46-2.38h-44.28c-2.44.01-4.59.81-6.46,2.38-.12.11-.25.22-.39.32h0ZM92.69,356.18c47.58.82,92.04,3.69,121.3,19.17-19.28-24.51-46.43-32.58-99.66-33.3-1.98-.03-3.67-.75-5.06-2.16s-2.09-3.11-2.09-5.09v-124.42l-14.5,4.14v141.65h0ZM75.16,170.01l16.32,29.79,55.69-15.91,41.37-43.31-16.15-29.5-38.86,42.4c-.96,1.05-2.13,1.75-3.5,2.11l-54.87,14.41h0ZM36.25,165.24l88.04-23.13,63.45-69.24-88.01,23.13-63.48,69.24h0ZM302.53,341.17c-27.26,3.88-42.36,14.12-53.6,37.94,14.83-9.66,35.86-15.9,64.51-19.34-4.43-5.73-8.07-11.93-10.91-18.6h0ZM121.68,327.69c34.38.95,56.98,5.34,74.71,14.4,12.6,6.41,22.97,15.39,31.12,26.94v-215.61l-26.09-5.33-21.77,22.8,31.16,5.9c.95.17,1.84.52,2.65,1.04.81.52,1.5,1.19,2.05,1.98.55.8.93,1.67,1.13,2.62.2.95.21,1.9.03,2.85-.18.95-.54,1.83-1.07,2.64s-1.2,1.48-2,2.03-1.68.91-2.63,1.1-1.9.19-2.85,0l-40.4-7.65-11.41,11.95c-.91.95-1.99,1.6-3.25,1.96l-31.36,8.96v121.44l-.02-.02ZM241.99,153.41v208.17c12.56-20.07,29.64-30.18,55.94-34.39-2.43-10.24-3.02-20.59-1.76-31.04l-22.15,4.18c-.94.18-1.89.17-2.83-.03-.94-.2-1.81-.57-2.6-1.11-.79-.54-1.45-1.22-1.98-2.02s-.88-1.68-1.06-2.62-.17-1.89.03-2.83c.2-.94.57-1.81,1.11-2.6.54-.79,1.22-1.45,2.02-1.98s1.68-.88,2.62-1.06l28.05-5.29c7.53-24.6,25.5-44.32,48.43-53.41v-85.07c-.03-3.25-1.24-5.97-3.64-8.15-.85-.88-1.88-1.21-3.09-1l-99.1,20.25h.01ZM362.3,156.15v67.08c4.62-.86,9.27-1.29,13.97-1.29.14,0,.27,0,.4,0l.16-58.21c0-3.23-1.2-5.93-3.6-8.09-.88-.91-1.94-1.25-3.18-1.04l-7.74,1.55h-.01ZM457.03,306.61c.08,11.38-2.01,22.34-6.28,32.89-4.27,10.55-10.39,19.88-18.36,28-7.74,7.85-11.92,13.11-14.3,18.23,3.7,4.82,5.54,10.26,5.53,16.34.02,4.35-.97,8.45-2.97,12.31s-4.79,7.03-8.36,9.52c.09.99.15,1.98.15,2.99,0,17.68-13.82,32.06-30.8,32.06h-10.72c-17,0-30.83-14.38-30.83-32.06,0-1,.06-2,.16-3-3.56-2.48-6.34-5.66-8.34-9.51s-2.99-7.95-2.96-12.3c-.02-6.08,1.82-11.52,5.52-16.34-1.79-3.86-4.62-7.8-9.21-12.87-.58.21-1.17.35-1.78.41-46.24,4.45-71.65,15.08-82.4,34.48-.02.04-.05.07-.07.1-.13.22-.27.44-.42.64-.03.05-.06.09-.1.14-.18.23-.37.45-.57.66-.05.05-.1.1-.16.15-.16.15-.32.29-.49.43-.08.06-.16.13-.24.18-.16.12-.33.23-.5.34-.08.05-.15.1-.23.14-.02.01-.03.02-.05.03-.12.07-.25.11-.37.17-.14.07-.28.14-.42.2-.2.08-.4.14-.61.2-.09.03-.18.07-.27.09-.26.07-.52.12-.79.16-.04,0-.08.02-.12.02-.31.04-.62.06-.93.06h0c-.31,0-.62-.02-.93-.06-.04,0-.08-.02-.12-.02-.27-.04-.53-.09-.79-.16-.09-.02-.18-.06-.27-.09-.2-.06-.4-.12-.61-.2-.14-.06-.28-.13-.42-.2-.12-.06-.25-.11-.37-.17-.02-.01-.03-.02-.05-.03-.08-.04-.15-.09-.23-.14-.17-.11-.34-.22-.5-.34l-.24-.18c-.17-.14-.34-.28-.49-.44-.05-.05-.1-.09-.15-.14-.21-.21-.4-.44-.58-.67-.03-.04-.06-.09-.09-.13-.15-.21-.29-.43-.42-.65-.02-.03-.05-.07-.07-.1-18.16-32.78-80.63-36.35-143.06-37.19-1.98-.03-3.67-.75-5.06-2.16s-2.09-3.11-2.09-5.09v-157.59l-17.48-31.92-44.63,11.72c-1.56.41-3.08.31-4.57-.3s-2.65-1.6-3.48-2.97-1.16-2.87-1-4.47.78-2.99,1.87-4.18l81.58-88.98c.96-1.05,2.13-1.75,3.5-2.11l113.91-29.93c1.42-.37,2.82-.32,4.21.15,1.39.48,2.52,1.3,3.41,2.47.89,1.17,1.37,2.49,1.45,3.95s-.25,2.83-.99,4.09c.15.21.28.43.4.66l16.58,30.26c.46.84.75,1.74.85,2.7.11.96.02,1.9-.24,2.82s-.7,1.76-1.31,2.51c-.6.75-1.32,1.36-2.17,1.82-.84.46-1.74.74-2.7.85-.96.1-1.9.02-2.82-.25-.92-.27-1.76-.71-2.51-1.31s-1.35-1.33-1.82-2.17l-14.5-26.47-23.02,25.12,18.3,33.41,33.72,6.89,103.45-21.14c5.69-1.12,10.74.21,15.14,3.98,5.67,4.84,8.65,10.98,8.93,18.44l4.94-.99c5.73-1.09,10.81.26,15.22,4.07,2.82,2.42,5,5.31,6.55,8.69s2.32,6.92,2.32,10.63l-.16,59.63c37.45,7.35,65.88,41.85,65.88,83.2l.03.02ZM264.83,191.16c.46,0,.91-.04,1.35-.13l60.11-11.38c1.95-.39,3.48-1.41,4.59-3.06s1.48-3.45,1.11-5.4c-.37-1.95-1.37-3.49-3.01-4.62-1.63-1.13-3.43-1.52-5.39-1.17l-60.11,11.38c-1.84.35-3.31,1.27-4.44,2.76-1.12,1.49-1.6,3.17-1.42,5.03.17,1.86.95,3.42,2.33,4.68,1.38,1.26,3,1.89,4.87,1.9h.01ZM209.46,300.46c1.87,0,3.49-.64,4.87-1.9s2.16-2.82,2.33-4.68-.3-3.54-1.43-5.03-2.6-2.41-4.44-2.76l-60.11-11.35c-.94-.18-1.89-.17-2.83.03s-1.81.57-2.6,1.11c-.79.54-1.45,1.21-1.98,2.02-.53.8-.88,1.68-1.05,2.62-.18.94-.17,1.89.03,2.83s.57,1.81,1.11,2.6,1.21,1.45,2.02,1.98c.8.53,1.68.88,2.62,1.06l60.11,11.35c.45.09.9.13,1.35.13h0ZM143.19,234.3c-.94-.18-1.82-.53-2.62-1.06-.8-.53-1.48-1.19-2.02-1.98s-.91-1.66-1.11-2.6-.21-1.88-.03-2.83c.18-.94.53-1.82,1.06-2.62.53-.8,1.19-1.48,1.98-2.02.79-.54,1.66-.91,2.6-1.11s1.88-.21,2.83-.03l60.11,11.38c.95.17,1.84.52,2.65,1.04.81.52,1.5,1.18,2.05,1.98s.93,1.67,1.13,2.62c.2.95.21,1.9.03,2.85-.18.95-.54,1.83-1.07,2.64-.53.81-1.2,1.48-2,2.03-.8.54-1.68.9-2.63,1.1-.95.19-1.9.19-2.85,0l-60.11-11.38h0Z"/></svg>