<?xml version="1.0" encoding="UTF-8"?><svg id="a" xmlns="http://www.w3.org/2000/svg" viewBox="0 0 512 512"><defs><style>.b{fill-rule:evenodd;}</style></defs><path class="b" d="M293.63,46.21c-25.81-6.05-53.58-3.86-79.07,7.7,23.96,4.29,46.86,13.98,66.77,28.53,8.81-9.98,13.19-23.1,12.31-36.24ZM190.76,68.06c-11.86,8.98-21.7,19.81-29.38,31.83,10.83-.48,20.82,1.45,29.8,3.68,25.93,6.42,53.31,2.71,76.6-10.33-22.78-15.58-49.59-24.28-77.01-25.18ZM310.34,51.39c-.42,15.16-6.04,29.93-16.11,41.57,5,4.54,9.76,9.41,14.22,14.63,17.06-8.28,34.02-15.53,50.67-21.77-13.45-15.62-30.3-27.26-48.77-34.44ZM369.46,99.73c-16.61,6.05-33.57,13.17-50.67,21.34,2.38,3.47,4.64,7.05,6.79,10.76.76,1.35,1.53,2.69,2.26,4.04,11.41-3.09,23.53-3.17,35.15-.07,9.11,2.45,17.53,6.75,24.74,12.54-2.21-14.95-7.22-29.73-15.23-43.6-.98-1.7-2-3.36-3.04-5ZM281.76,104.13c-1.45,1-2.96,1.95-4.52,2.85-27.24,15.73-59.52,20.3-90.06,12.72-10.28-2.55-22.2-4.94-35.32-1.73-8.8,20.65-11.94,43.55-8.73,66.1,13.77-1.1,27.56-.12,40.89,2.81l.03-.03c24.64-20.27,52.65-39.76,83.35-57.49,8.56-4.94,17.13-9.63,25.69-14.07-3.59-3.96-7.37-7.68-11.32-11.16ZM388.82,174.29c-6.8-11.02-17.58-19.06-30.13-22.43-7.77-2.08-15.85-2.26-23.58-.65,9.99,24.26,13.6,49.94,11.42,74.9,10.79-4.89,21.77-8.72,32.76-11.46,5.4-12.8,8.63-26.46,9.53-40.36ZM110.36,208.4c-5.85,2.26-11.61,5-17.21,8.23-5.67,3.28-10.97,6.95-15.91,10.94,11.14,1.1,23.55,2.35,23.55,2.35l9.58-21.52ZM303.71,128.53c-9.33,4.77-18.68,9.86-28,15.25-26.29,15.16-50.55,31.66-72.34,48.86,17.34,6.54,33.46,16.56,47.18,29.75,3.54,3.41,6.92,7.03,10.11,10.86.6-6.77,1.45-14.13,2.74-20.47,5.97-28.85,21.53-54.73,47.04-69.46.45-.25.9-.52,1.33-.76.2-.12.38-.22.58-.33-.38-.68-.78-1.38-1.18-2.08-2.33-4.02-4.82-7.9-7.47-11.61ZM225.58,241.56l22.28,2.29c-2.81-3.34-5.75-6.5-8.85-9.48-5.64-5.42-11.74-10.23-18.19-14.42l4.76,21.6ZM319.6,157.23l-.85.48c-21.37,12.34-34.07,34.26-39.06,58.42-2.88,13.92-3.34,32.89-4.11,38.81,2.83,5.09,5.31,10.28,7.45,15.55.12-.13.23-.25.37-.38,13.99-13.98,29.27-25.61,45.23-34.81,4.17-25.77,1.43-52.78-9.03-78.07ZM201.55,209.79c-21.98-9.19-46.48-11.94-70.32-7.37l-15.96,35.87,17.03,29.5,54.51,5.72,22.65-27.87-7.9-35.85ZM480.67,297.1l-70.71-70.71c16.51-1.21,32.63.4,47.58,4.92,8.63,2.79,15.4,9.56,18.19,18.19,4.54,14.97,6.14,31.08,4.94,47.59ZM61.62,242.72c-15.76,18.34-25.58,40.84-28.59,64.37l27.12,24.78,35.35-5.49,22.38-50.27-17.03-29.48-39.25-3.91ZM260.4,261.86l-39.4-4.06-21.58,26.54,11.34,53.4,23.1,9.03c7.97-21.75,20.19-43.07,36.53-62.48-2.53-7.65-5.85-15.16-9.99-22.43ZM32.2,328.86c.6,11.89,2.96,23.81,7.17,35.37,4.42-9.9,9.15-20.46,9.15-20.46l-16.31-14.92ZM132.34,284.51l51.25,5.39,10.73,50.42-44.63,25.78-38.3-34.49,20.95-47.09ZM401.52,293.77l-14.8,14.8-5.89-5.9c-3.24-3.24-8.51-3.24-11.76,0-3.24,3.24-3.24,8.51,0,11.76l5.89,5.91-14.8,14.8-5.89-5.9c-3.24-3.24-8.51-3.24-11.76,0-3.26,3.24-3.26,8.51,0,11.76l5.89,5.9-14.8,14.8-5.89-5.9c-3.26-3.24-8.52-3.24-11.77,0-3.24,3.24-3.24,8.51,0,11.76l5.9,5.9-14.8,14.8-5.9-5.9c-3.24-3.24-8.51-3.24-11.76,0-3.24,3.26-3.24,8.51,0,11.76l23.56,23.56c3.24,3.24,8.52,3.24,11.76,0s3.24-8.51,0-11.76l-5.9-5.9,14.8-14.8,5.9,5.9c3.24,3.24,8.52,3.24,11.76,0,3.24-3.24,3.24-8.51,0-11.76l-5.9-5.91,14.8-14.8,5.9,5.9c3.24,3.24,8.51,3.24,11.76,0,3.24-3.24,3.24-8.51,0-11.76l-5.9-5.9,14.8-14.8,5.9,5.9c3.24,3.24,8.51,3.24,11.76,0,3.24-3.26,3.24-8.51,0-11.77l-5.89-5.89,14.8-14.8,5.89,5.89c3.24,3.26,8.52,3.26,11.76,0,3.26-3.24,3.26-8.51,0-11.76l-23.55-23.55c-3.24-3.24-8.51-3.24-11.76,0-3.24,3.24-3.24,8.51,0,11.76l5.89,5.9ZM100.73,432.36l33.32-18.83,5.24-34.44-40.44-36.4-33.99,5.27-16.16,36.12c12.65,21.68,31,38.05,52.03,48.28ZM228.81,362.65l-23.8-9.31-49.32,28.49-5.14,33.79,29.14,26.44c12.26-2.59,24.28-7.13,35.69-13.72,2.81-1.61,5.52-3.33,8.15-5.12-2.05-19.51-.25-40.08,5.29-60.56ZM120.92,440.04c11.94,3.39,24.39,4.97,36.9,4.62-8.21-7.47-17.3-15.7-17.3-15.7l-19.61,11.08ZM389.36,229.32c-33.03,6.95-66.4,24.74-94.21,52.55-3.13,3.13-6.12,6.32-9,9.58-.15.18-.3.37-.46.53-22.42,25.61-36.97,54.98-43.1,84.11l88.37,88.37c33.04-6.95,66.4-24.74,94.22-52.56,27.8-27.8,45.61-61.18,52.56-94.2l-88.38-88.37ZM239.67,396.67l70.71,70.71c-16.51,1.21-32.63-.4-47.58-4.94-8.65-2.78-15.42-9.55-18.19-18.18-4.54-14.97-6.15-31.08-4.94-47.59ZM126.65,186.38c-14.33,2.89-28.45,8.13-41.82,15.85-39.88,23.03-64.01,62.91-68.61,105.46-.36,1.15-.48,2.34-.33,3.52-2.13,25.68,2.86,52.2,15.78,76.46.23.58.53,1.13.9,1.65.47.86.95,1.73,1.45,2.59,15.08,26.11,37.37,45.47,62.91,57.02.5.27,1.01.5,1.55.68,39.06,17.09,85.49,16.06,125.22-6.88.96-.55,1.9-1.11,2.84-1.68.63,2.73,1.36,5.44,2.18,8.12.02.03.03.08.03.12,4.44,13.79,15.23,24.59,29.02,29.02.05,0,.08.02.13.03,55.79,16.96,126.55-2.19,179.05-54.69,52.5-52.48,71.64-123.26,54.69-179.05-.02-.03-.03-.08-.05-.12-4.42-13.79-15.23-24.59-29.02-29.02-.03,0-.07-.02-.12-.03-19.92-6.05-41.77-7.52-64.01-4.48,12.26-36.75,9.35-78.39-11.54-114.54-18.69-32.38-48.37-54.48-81.62-64.3-1.18-.7-2.55-1.08-3.97-1.11-34.54-9.15-72.57-5.17-105.94,14.1-51.04,29.47-76.55,86.25-68.71,141.28Z"/></svg>